<?xml version="1.0" standalone="no"?>
<!DOCTYPE svg PUBLIC "-//W3C//DTD SVG 20010904//EN"
 "http://www.w3.org/TR/2001/REC-SVG-20010904/DTD/svg10.dtd">
<svg version="1.0" xmlns="http://www.w3.org/2000/svg"
 width="346.000000pt" height="349.000000pt" viewBox="0 0 346.000000 349.000000"
 preserveAspectRatio="xMidYMid meet">

<g transform="translate(0.000000,349.000000) scale(0.100000,-0.100000)"
fill="#000000" stroke="none">
<path d="M10 1745 l0 -1735 1720 0 1720 0 0 1368 0 1367 -368 368 -368 367
-1352 0 -1352 0 0 -1735z m2558 993 c-3 -536 -4 -554 -24 -598 -25 -55 -81
-106 -132 -119 -24 -7 -272 -11 -682 -11 -410 0 -658 4 -682 11 -51 13 -107
64 -132 119 -20 44 -21 62 -24 598 l-3 552 841 0 841 0 -3 -552z m248 -1027
c51 -23 89 -71 104 -131 7 -31 10 -207 8 -570 -3 -507 -4 -526 -23 -560 -12
-19 -36 -43 -55 -55 -35 -20 -47 -20 -1120 -20 -1073 0 -1085 0 -1120 20 -19
12 -43 36 -55 55 -19 34 -20 53 -23 564 -2 445 0 537 12 580 17 56 62 107 111
124 20 7 376 11 1075 11 1000 1 1047 0 1086 -18z"/>
<path d="M2064 3111 c-23 -10 -52 -34 -65 -52 l-24 -34 0 -357 c0 -345 1 -357
21 -384 39 -53 71 -69 134 -69 63 0 95 16 134 69 20 27 21 39 21 384 l0 357
-24 34 c-26 36 -90 71 -131 71 -14 0 -43 -9 -66 -19z"/>
<path d="M930 1310 l0 -60 800 0 800 0 0 60 0 60 -800 0 -800 0 0 -60z"/>
<path d="M930 790 l0 -60 800 0 800 0 0 60 0 60 -800 0 -800 0 0 -60z"/>
</g>
</svg>
