<?xml version="1.0" standalone="no"?>
<!DOCTYPE svg PUBLIC "-//W3C//DTD SVG 20010904//EN"
 "http://www.w3.org/TR/2001/REC-SVG-20010904/DTD/svg10.dtd">
<svg version="1.0" xmlns="http://www.w3.org/2000/svg"
 width="346.000000pt" height="349.000000pt" viewBox="0 0 346.000000 349.000000"
 preserveAspectRatio="xMidYMid meet">

<g transform="translate(0.000000,349.000000) scale(0.100000,-0.100000)"
fill="#000000" stroke="none">
<path d="M10 1745 l0 -1735 1720 0 1720 0 0 1368 0 1367 -368 368 -368 367
-1352 0 -1352 0 0 -1735z m2558 993 c-3 -536 -4 -554 -24 -598 -25 -55 -81
-106 -132 -119 -24 -7 -272 -11 -682 -11 -410 0 -658 4 -682 11 -51 13 -107
64 -132 119 -20 44 -21 62 -24 598 l-3 552 841 0 841 0 -3 -552z m248 -1027
c51 -23 89 -71 104 -131 7 -31 10 -207 8 -570 -3 -507 -4 -526 -23 -560 -12
-19 -36 -43 -55 -55 -35 -20 -47 -20 -1120 -20 -1073 0 -1085 0 -1120 20 -19
12 -43 36 -55 55 -19 34 -20 53 -23 564 -2 445 0 537 12 580 17 56 62 107 111
124 20 7 376 11 1075 11 1000 1 1047 0 1086 -18z"/>
<path d="M2025 3166 c-37 -17 -80 -62 -94 -99 -7 -18 -11 -164 -11 -410 0
-349 2 -385 19 -422 22 -48 44 -69 94 -90 93 -39 202 6 236 98 7 18 11 166 11
414 0 364 -1 389 -20 427 -28 58 -89 96 -155 96 -27 -1 -63 -7 -80 -14z"/>
<path d="M900 1280 l0 -140 830 0 830 0 0 140 0 140 -830 0 -830 0 0 -140z"/>
<path d="M900 790 l0 -140 830 0 830 0 0 140 0 140 -830 0 -830 0 0 -140z"/>
</g>
</svg>
